<svg xmlns:xlink="http://www.w3.org/1999/xlink" xmlns="http://www.w3.org/2000/svg" viewBox="0 0 500 500" width="500"  height="500" >
                    <path d="M455.621,214.262l-195.54-63.853c-1.091-0.352-2.266-0.352-3.357,0L62.974,213.678h-8.088h5.287
                    l-5,93.964c-3.664,2.696-6.057,7.025-6.057,11.916c0,8.165,6.641,14.802,14.802,14.802s14.798-6.637,14.798-14.802
                    c0-4.342-1.889-8.24-4.874-10.949l-3-80.916l55.555,18.143v47.61c0,29.695,56.751,52.092,132.007,52.092
                    s132.003-22.396,132.003-52.092v-47.609l65.215-21.298c2.224-0.725,3.727-2.801,3.727-5.138
                    C459.348,217.063,457.846,214.987,455.621,214.262z M258.403,334.726c-71.423,0-121.196-21.756-121.196-41.281v-43.097
                    l2.899-0.035l116.618,38.085c0.545,0.176,1.112,0.268,1.679,0.268s1.133-0.092,1.679-0.268l119.513-39.031v44.078
                    C379.595,312.97,329.823,334.726,258.403,334.726z M258.403,277.573L80.277,219.4l178.126-58.166L436.53,219.4L258.403,277.573z" fill="#5f9deb"></path>
                  </svg>