<svg xmlns:xlink="http://www.w3.org/1999/xlink" xmlns="http://www.w3.org/2000/svg" viewBox="0 0 500 500" width="500"  height="500" >
                    <path d="M147.314,205.571l-19.517-0.209h-0.267c-12.893,0-23.504,10.4-23.652,23.32l-0.332,19.007v0.058
                      c-0.058,3.447,2.76,6.265,6.207,6.296h0.089c3.417,0,6.176-2.729,6.204-6.176c0-0.058,0-0.089,0.031-0.147l0.359-20.027
                      l2.818,0.061l-0.359,18.047c3.119-6.686,10.072-11.333,18.228-11.333c8.153,0,15.106,4.647,18.225,11.361l0.27-17.684
                      l2.548,0.028l-0.328,20.177v0.028c-0.061,3.42,2.698,6.237,6.173,6.296h0.092c3.386,0,6.204-2.729,6.235-6.145v-0.058
                      l0.359-18.977C170.846,216.423,160.385,205.722,147.314,205.571z M138.59,204.432h0.209c9.025,0,16.398-7.284,16.518-16.337
                      c0.092-9.114-7.223-16.607-16.337-16.699h-0.239c-9.025,0-16.367,7.284-16.487,16.337
                      C122.134,196.878,129.449,204.371,138.59,204.432z M425.804,251.527c-2.041-8.214-9.805-31.897-18.768-59.297l-0.988-2.965
                      c-6.235-19.038-15.769-29.168-26.829-34.506c0.899-2.698,0.988-5.605,0.239-8.423l-8.153-30.485
                      c-4.709-20.386-21.494-34.565-40.86-34.565c-19.545,0-36.363,14.357-40.98,34.951l-8.061,30.098
                      c-0.872,3.297-0.571,6.744,0.777,9.774c-10.28,5.366-19.453,14.658-26.378,30.666c-2.548,5.817-5.157,11.631-7.705,17.267
                      c-2.938-5.817-5.906-11.812-8.782-17.807c-11.484-23.83-24.941-32.554-41.22-35.673c4.077-6.833,6.416-14.839,6.416-23.382
                      c0-25.3-20.594-45.895-45.895-45.895c-25.331,0-45.956,20.594-45.956,45.895c0,8.782,2.459,16.997,6.775,23.953
                      c-27.041,7.404-46.945,32.195-46.945,61.513V234.5c0,15.14,7.076,24.072,12.5,29.527c1.71,1.83,6.296,6.416,20.745,13.758
                      v109.148c0,17.506,13.101,31.206,29.859,31.206c8.184,0,15.646-3.177,21.224-8.392c5.575,5.215,13.068,8.392,21.251,8.392
                      c17.209,0,31.206-13.998,31.206-31.206c0-0.448,0-1.2-0.089-2.127V254.585l11.453,19.216c0.12,0.178,0.209,0.39,0.298,0.537
                      c9.025,13.912,20.205,15.978,26.052,15.978c0.568,0,1.139,0,1.737-0.058c0.54,0.058,1.108,0.058,1.648,0.058
                      c2.397,0,5.667-0.359,9.292-1.826l-3.806,13.04c-1.289,4.436-0.39,9.234,2.37,12.92c2.787,3.687,7.134,5.875,11.751,5.875
                      h15.259l-2.25,64.752c-0.031,0.629-0.089,1.228-0.089,1.857c0,17.506,12.77,31.206,29.076,31.206
                      c7.674,0,14.572-3.057,19.695-8.122c5.157,5.065,12.052,8.122,19.726,8.122c15.83,0,27.759-13.43,27.759-31.206
                      c0-0.15,0-0.328-0.031-0.479l-2.216-66.13h15.229c4.617,0,8.963-2.189,11.751-5.875s3.656-8.485,2.367-12.92l-3.235-11.152
                      c2.216-0.12,4.466-0.54,6.683-1.228C416.93,286.899,432.699,278.746,425.804,251.527z M303.736,119.746
                      c2.968-13.669,13.789-23.772,26.709-23.772c12.862,0,23.563,9.952,26.59,23.412l8.214,30.755h-16.217
                      c-4.887,5.099-11.392,8.214-18.587,8.214c-7.134,0-13.669-3.116-18.587-8.214H295.61L303.736,119.746z M158.617,95.975
                      c17.236,0,31.176,13.97,31.176,31.206c0,17.206-13.939,31.176-31.176,31.176c-17.239,0-31.268-13.97-31.268-31.176
                      C127.349,109.945,141.377,95.975,158.617,95.975z M405.418,275.09c-1.44,0.448-2.818,0.657-4.138,0.657
                      c-6.624,0-11.631-5.393-14.599-14.21c-0.028-0.058-15.677-51.291-15.677-51.291h-6.535l27.67,95.359h-30.457l2.757,81.328
                      c0,9.083-4.884,16.487-13.04,16.487c-8.273,0-14.329-7.404-14.329-16.487c0-0.39,0-0.718,0.031-1.077l2.818-80.25H323.55
                      l2.729,81.328c0,9.083-6.056,16.487-14.302,16.487c-8.242,0-14.357-7.404-14.357-16.487c0-0.39,0.058-0.718,0.058-1.077
                      l2.787-80.25h-30.485l27.698-95.359h-8.064l-26.86,56.028c0,0.031,0,0.031,0,0.061c-3.837,6.535-8.153,9.292-12.38,9.292
                      c-0.54,0-1.077-0.058-1.618-0.15c-0.571,0.092-1.17,0.15-1.768,0.15c-4.678,0-9.473-2.757-13.7-9.292c0-0.031,0-0.031,0-0.061
                      l-33.456-56.028h-5.366v175.61c0.12,0.359,0.12,0.688,0.12,1.077c0,9.083-7.435,16.487-16.518,16.487
                      c-9.083,0-16.487-7.404-16.487-16.487v-92.419h-9.593v91.341c0.061,0.359,0.092,0.688,0.092,1.077
                      c0,9.083-7.376,16.487-16.487,16.487c-9.114,0-15.17-7.404-15.17-16.487v-118.41c-8.184-3.748-20.174-9.743-24.88-14.75
                      c-5.277-5.246-8.365-10.762-8.365-19.274c0-15.827,0-21.853,0-21.853c0-27.071,22.003-49.044,49.102-49.044h37.772
                      c27.038,0,39.359,2.698,52.009,29.018c7.855,16.309,16.429,32.766,22.694,45.118c5.725-12.352,13.43-28.809,20.533-45.118
                      c11.422-26.319,27.999-29.018,52.402-29.018h23.023c24.401,0,38.638,3.659,47.362,30.218
                      c8.724,26.62,17.479,53.24,19.456,61.332C413.903,264.506,413.872,272.45,405.418,275.09z M126.21,277.546l0.058-0.058
                      c-0.028-0.061-0.028-0.092-0.028-0.12C126.241,277.395,126.21,277.488,126.21,277.546z M149.742,247.96
                      c-0.359-0.092-0.718-0.12-1.108-0.12c-3.957,0-8.064,4.706-9.593,11.149c-1.71,7.106,0.417,13.672,4.675,14.661
                      c0.359,0.089,0.749,0.12,1.108,0.12c3.957,0,8.095-4.678,9.623-11.152C156.097,255.542,154,248.949,149.742,247.96z
                       M125.55,247.841c-0.359,0-0.718,0.028-1.081,0.12c-4.224,0.988-6.354,7.582-4.675,14.658
                      c1.529,6.474,5.667,11.152,9.593,11.152c0.39,0,0.749-0.031,1.108-0.12c4.258-0.988,6.385-7.555,4.709-14.661
                      C133.703,252.546,129.538,247.841,125.55,247.841z" fill="#fe9e31"></path>
                  </svg>