<svg xmlns:xlink="http://www.w3.org/1999/xlink" xmlns="http://www.w3.org/2000/svg" viewBox="0 0 500 500" width="500"  height="500" >
                    <g fill="#4a4a4a">
                      <g fill="#4a4a4a">
                        <g fill="#4a4a4a">
                          <g fill="#4a4a4a">
                            <path d="M191.561,316.683c-39.346,0-71.355-32.006-71.355-71.353s32.009-71.358,71.355-71.358
                              s71.355,32.011,71.355,71.358S230.908,316.683,191.561,316.683z M191.561,184.158c-33.729,0-61.17,27.441-61.17,61.173
                              c0,33.727,27.441,61.168,61.17,61.168s61.17-27.441,61.17-61.168C252.732,211.599,225.291,184.158,191.561,184.158z" fill="#4a4a4a"></path>
                          </g>
                          <g fill="#4a4a4a">
                            <path d="M191.561,425.617c-2.812,0-5.092-2.278-5.092-5.092V316.38c0-2.815,2.28-5.092,5.092-5.092
                              c2.812,0,5.092,2.278,5.092,5.092v104.145C196.654,423.339,194.374,425.617,191.561,425.617z" fill="#4a4a4a"></path>
                          </g>
                          <g fill="#4a4a4a">
                            <path d="M243.631,373.545H139.489c-2.812,0-5.092-2.278-5.092-5.092c0-2.815,2.28-5.092,5.092-5.092
                              h104.142c2.812,0,5.092,2.278,5.092,5.092C248.724,371.267,246.443,373.545,243.631,373.545z" fill="#4a4a4a"></path>
                          </g>
                          <g fill="#4a4a4a">
                            <path d="M191.561,316.683c-39.346,0-71.355-32.006-71.355-71.353s32.009-71.358,71.355-71.358
                              s71.355,32.011,71.355,71.358S230.908,316.683,191.561,316.683z M191.561,184.158c-33.729,0-61.17,27.441-61.17,61.173
                              c0,33.727,27.441,61.168,61.17,61.168s61.17-27.441,61.17-61.168C252.732,211.599,225.291,184.158,191.561,184.158z" fill="#4a4a4a"></path>
                          </g>
                        </g>
                        <g fill="#4a4a4a">
                          <g fill="#4a4a4a">
                            <path d="M264.722,313.421c-18.271,0-36.544-6.957-50.454-20.867c-27.819-27.824-27.819-73.088,0-100.912
                              c13.477-13.477,31.395-20.902,50.456-20.902c19.059,0,36.977,7.425,50.454,20.902c27.819,27.824,27.819,73.088,0,100.912
                              C301.268,306.464,282.995,313.421,264.722,313.421z M264.724,180.925c-16.341,0-31.7,6.365-43.255,17.918
                              c-23.848,23.851-23.848,62.66,0,86.51c23.853,23.846,62.655,23.846,86.508,0c23.848-23.851,23.848-62.66,0-86.51
                              C296.422,187.291,281.063,180.925,264.724,180.925z" fill="#4a4a4a"></path>
                          </g>
                          <g fill="#4a4a4a">
                            <path d="M318.144,193.771c-1.303,0-2.606-0.497-3.6-1.492c-1.989-1.989-1.989-5.212,0-7.201
                              l73.638-73.64c1.989-1.989,5.212-1.989,7.201,0c1.989,1.989,1.989,5.212,0,7.201l-73.638,73.64
                              C320.75,193.273,319.447,193.771,318.144,193.771z" fill="#4a4a4a"></path>
                          </g>
                          <g fill="#4a4a4a">
                            <path d="M264.722,313.421c-18.271,0-36.544-6.957-50.454-20.867c-27.819-27.824-27.819-73.088,0-100.912
                              c13.477-13.477,31.395-20.902,50.456-20.902c19.059,0,36.977,7.425,50.454,20.902c27.819,27.824,27.819,73.088,0,100.912
                              C301.268,306.464,282.995,313.421,264.722,313.421z M264.724,180.925c-16.341,0-31.7,6.365-43.255,17.918
                              c-23.848,23.851-23.848,62.66,0,86.51c23.853,23.846,62.655,23.846,86.508,0c23.848-23.851,23.848-62.66,0-86.51
                              C296.422,187.291,281.063,180.925,264.724,180.925z" fill="#4a4a4a"></path>
                          </g>
                          <g fill="#4a4a4a">
                            <path d="M391.782,193.771c-2.812,0-5.092-2.278-5.092-5.092V120.13h-68.545
                              c-2.812,0-5.092-2.278-5.092-5.092s2.28-5.092,5.092-5.092h73.638c2.812,0,5.092,2.278,5.092,5.092v73.64
                              C396.874,191.493,394.594,193.771,391.782,193.771z" fill="#4a4a4a"></path>
                          </g>
                        </g>
                      </g>
                    </g>
                  </svg>