<svg xmlns:xlink="http://www.w3.org/1999/xlink" xmlns="http://www.w3.org/2000/svg" viewBox="0 0 500 500" width="500"  height="500" >
                    <path d="M381.254,160.868c9.054-7.467,30.399-27.29,32.578-50.384c1.025-10.739-2.148-20.882-9.186-29.31
                    c-9.944-12.058-21.44-14.602-29.337-14.602c-8.594,0-16.193,2.906-22.107,6.246c-5.22-3.238-11.96-5.884-20.053-5.884
                    c-7.369,0-18.405,2.412-29.442,13.78c-28.711,29.702,4.429,64.097,15.333,75.397c1.154,1.188,2.145,2.213,2.872,3.038
                    c4.595,5.156,9.913,11.266,13.581,15.465c-5.782,2.974-10.539,7.731-13.347,13.611l-56.468-37.467
                    c-13.943-9.186-16.653-10.177-21.41-10.177c-4.791,0-7.799,1.191-21.376,10.109L99.951,232.036
                    c-13.614,9.054-18.04,26.498-9.879,38.922c4.825,7.237,13.151,11.53,22.303,11.53c2.707,0,5.383-0.43,7.995-1.154v114.681
                    c0.034,11.926,9.649,21.542,21.609,21.575h43.019c11.96-0.034,21.572-9.649,21.606-21.575v-72.623
                    c0-2.94,2.446-5.386,5.386-5.386h69.155c2.94,0,5.383,2.48,5.383,5.386v72.623c0.034,11.896,9.683,21.542,21.609,21.575h43.019
                    c11.96-0.034,21.575-9.649,21.64-21.575V284.572c2.514,0.66,5.089,1.056,7.667,1.056c9.152,0,17.478-4.294,22.235-11.497
                    c3.735-5.616,5.055-12.522,3.634-19.427c-1.553-7.799-6.442-14.904-13.445-19.529l-8.029-5.319
                    c-1.621-1.093-3.965-5.484-3.965-7.467v-21.345c0-10.539-5.552-19.725-13.845-25.009
                    C369.23,172.993,374.186,166.717,381.254,160.868z M356.573,396.015c0,2.876-2.477,5.386-5.417,5.386h-43.019
                    c-2.94,0-5.386-2.48-5.386-5.386v-72.623c-0.034-11.96-9.68-21.575-21.606-21.606H211.99
                    c-11.926,0.03-21.575,9.646-21.575,21.606v72.623c0,2.906-2.477,5.386-5.417,5.386h-43.019c-2.91,0-5.386-2.48-5.386-5.386
                    V272.642l105.333-69.679c0.132-0.068,0.991-0.365,2.311-0.365c1.323,0,2.182,0.298,2.378,0.396l109.958,72.988V396.015z
                     M375.902,243.37l8.029,5.319c6.181,4.097,8.56,11.5,5.254,16.487c-1.851,2.808-5.122,4.229-8.722,4.229
                    c-2.774,0-5.782-0.859-8.492-2.642l-116.467-77.316c-3.106-2.047-7.169-3.072-11.266-3.072c-4.063,0-8.161,1.025-11.233,3.072
                    l-112.14,74.176c-2.707,1.786-5.714,2.642-8.489,2.642c-3.637,0-6.905-1.451-8.756-4.229c-3.272-4.987-0.893-12.39,5.285-16.487
                    l122.909-81.311c6.181-4.063,11.798-7.433,12.457-7.433s6.246,3.37,12.424,7.467l67.467,44.738
                    c1.983,1.32,3.833,1.915,5.42,1.915c3.468,0,5.846-2.876,5.846-7.93v-1.949c0-7.399,6.08-13.479,13.483-13.479h2.247
                    c7.433,0,13.513,6.08,13.513,13.479v21.345C364.669,229.823,369.724,239.239,375.902,243.37z M352.147,169.062
                    c-0.528-0.596-10.441-12.028-18.138-20.716c-7.734-8.658-38.692-35.616-18.635-56.366c6.344-6.577,12.424-8.824,17.742-8.824
                    h0.034c11.398,0,18.93,9.781,19.295,10.275c0.528-0.528,10.603-10.637,22.864-10.637c5.549,0,11.497,2.213,16.883,8.722
                    c17.214,20.716-9.548,47.214-21.247,56.83C359.249,157.995,352.509,168.534,352.147,169.062z" fill="#44bcfe"></path>
                  </svg>