<svg xmlns:xlink="http://www.w3.org/1999/xlink" xmlns="http://www.w3.org/2000/svg" viewBox="0 0 500 500" width="500"  height="500" >
                    <path class="cls-1" d="M393.868,274.043c-0.262-4.156-1.163-7.67-1.687-9.762c-2.062-7.905-10.053-31.671-18.509-56.832 l-0.842-2.499c-7.7-22.924-20.484-32.308-34.953-36.086c5.638-7.611,8.979-17.024,8.979-27.223 c0-11.942-4.591-23.215-12.639-31.611c0-0.318,0-0.669,0-1.018c0-18.303-14.876-33.209-33.209-33.209
                    c-18.306,0-33.182,14.906-33.182,33.209c0,0.348,0,0.669,0,1.018c-8.048,8.426-12.639,19.729-12.639,31.611
                    c0,10.199,3.341,19.613,8.979,27.223c-14.468,3.779-27.226,13.162-34.982,36.059l-1.452,4.385
                    c-7.09,21.035-13.338,39.719-16.417,49.858c-6.623-1.919-13.394-3.749-19.758-5.201c0.64-3.023,0.961-6.132,0.901-9.241
                    c-0.348-21.237-17.548-38.526-38.35-38.526c-9.997,0-19.41,3.951-26.47,11.127c-7.292,7.411-11.214,17.319-11.041,27.893
                    c0.06,3.344,0.553,6.626,1.425,9.821c-5.956,2.529-11.333,6.132-15.748,10.607c-7.932,8.048-12.204,18.419-12.029,29.169
                    l0.64,42.043c0.232,12.32,10.72,21.936,23.882,21.936c0.176,0,0.348,0,0.494,0l0.696,40.793
                    c0.089,13.742,11.681,24.611,26.411,24.611c5.462,0,10.547-1.541,14.73-4.418c4.272,2.791,9.503,4.418,15.168,4.418
                    c7.12,0,13.597-2.615,18.277-7.352c4.445-4.561,6.855-10.633,6.739-17.113l-1.074-65.808l-0.434-28.095l23.01,6.099
                    c0.202,0.06,0.408,0.116,0.64,0.176c2.731,0.58,4.359,0.785,6.218,0.785c0.872,0,1.714-0.03,2.585-0.146l-4.475,14.816
                    c-1.309,4.329-0.494,9.009,2.178,12.612c2.701,3.63,6.944,5.781,11.449,5.781h20.133l-2.062,46.72c0,0.232-0.03,0.437-0.03,0.64
                    c0.03,17.054,11.651,29.898,27.051,29.898c7.146,0,13.597-2.675,18.538-7.176c4.939,4.501,11.389,7.176,18.535,7.176
                    c11.216,0,20.193-6.423,24.435-16.447v0.961c0,7.872,6.364,14.266,14.236,14.266h6.772c7.843,0,14.236-6.394,14.236-14.266V312.86
                    c2.526,2.267,5.867,3.633,9.53,3.633h6.769c7.875,0,14.236-6.394,14.236-14.239C409.759,290.254,403.454,279.767,393.868,274.043z
                    M301.009,90.038c10.488,0,18.973,8.485,18.973,18.973c0,0.901-0.089,1.803-0.205,2.675c-5.433-3.43-11.883-5.406-18.768-5.406
                    c-6.888,0-13.338,1.976-18.741,5.406c-0.146-0.872-0.205-1.773-0.205-2.675C282.063,98.524,290.549,90.038,301.009,90.038z
                    M283.227,115.548c0.176-0.116,0.378-0.232,0.58-0.375c0.176-0.119,0.351-0.235,0.553-0.378c0.202-0.116,0.378-0.235,0.61-0.351
                    c0.202-0.116,0.348-0.202,0.553-0.318c0.232-0.116,0.405-0.232,0.61-0.318c0.348-0.205,0.666-0.408,1.015-0.553
                    c0.205-0.116,0.408-0.202,0.61-0.262c0.205-0.116,0.467-0.232,0.699-0.318c0.202-0.116,0.378-0.176,0.58-0.262
                    c0.262-0.086,0.494-0.205,0.726-0.292c0.205-0.056,0.378-0.116,0.583-0.202c0.405-0.146,0.782-0.292,1.22-0.408
                    c0.116-0.03,0.262-0.086,0.348-0.116c0.348-0.116,0.669-0.202,0.988-0.292c0.202-0.027,0.348-0.057,0.494-0.143
                    c0.318-0.06,0.64-0.119,0.958-0.175c0.146-0.06,0.292-0.086,0.437-0.116c0.464-0.086,0.928-0.146,1.395-0.232
                    c0.027,0,0.173-0.03,0.173-0.03c0.408-0.06,0.842-0.116,1.25-0.176c0.146,0,0.318,0,0.437-0.027
                    c0.348-0.03,0.696-0.06,1.074-0.089c0.116,0,0.262,0,0.434,0c0.494-0.027,0.961-0.057,1.455-0.057c0.494,0,0.988,0.03,1.482,0.057
                    c0.143,0,0.262,0,0.434,0c0.348,0.03,0.699,0.06,1.018,0.089c0.176,0.027,0.318,0.027,0.464,0.027
                    c0.437,0.06,0.842,0.116,1.25,0.176c0.086,0,0.146,0.03,0.202,0.03c0.467,0.086,0.901,0.146,1.366,0.232
                    c0.146,0.03,0.292,0.057,0.437,0.116c0.318,0.056,0.669,0.116,0.928,0.175c0.205,0.086,0.378,0.116,0.553,0.143
                    c0.292,0.089,0.61,0.176,0.958,0.292c0.116,0.03,0.262,0.086,0.378,0.116c0.408,0.116,0.815,0.262,1.22,0.408c0.176,0.086,0.378,0.146,0.553,0.202c0.262,0.086,0.494,0.205,0.756,0.292c0.173,0.086,0.348,0.146,0.58,0.262
                    c0.232,0.086,0.464,0.202,0.696,0.318c0.205,0.086,0.408,0.176,0.64,0.262c0.321,0.175,0.64,0.348,0.961,0.553
                    c0.202,0.086,0.434,0.202,0.637,0.318c0.176,0.116,0.351,0.202,0.553,0.318c0.176,0.116,0.408,0.235,0.61,0.351
                    c0.176,0.143,0.348,0.232,0.524,0.348c8.688,5.635,14.382,15.426,14.382,26.497c0,17.461-14.12,31.582-31.582,31.582
                    c-17.464,0-31.585-14.12-31.585-31.582C269.425,130.802,274.887,121.245,283.227,115.548z M388.754,302.253
                    c-0.03-6.566-5.317-11.913-11.883-11.913s-11.883,5.346-11.883,11.913v105.471h-6.772v-76.037h-28.589l2.701,61.625
                    c0,8.658-4.737,15.661-12.784,15.661c-8.018,0-13.975-7.033-13.975-15.691c0-0.348,0-0.696,0.057-0.988l2.704-60.608h-14.617
                    l2.704,60.608c0.027,0.292,0.057,0.64,0.057,0.988c0,8.658-5.956,15.691-14.004,15.691c-8.018,0-12.784-7.004-12.784-15.661
                    l2.701-61.625h-35.009l32.308-106.572h-6.391c0,0-15.254,48.725-15.313,48.841c-2.178,6.304-5.489,10.779-9.762,12.579
                    c-0.61,7.554-7.408,12.115-12.579,12.115c-0.583,0-1.193-0.057-3.198-0.494l-41.227-10.922l0.756,46.922l1.074,65.838
                    c0.086,5.492-4.127,9.967-10.779,9.967s-12.115-4.475-12.175-10.607l-0.899-55.639h-6.974l0.901,56.279
                    c0.086,5.492-4.127,9.967-10.752,9.967c-6.682,0-12.115-4.475-12.175-10.607l-1.074-65.199l-0.666-41.025h-4.969l0.666,43.554
                    c0.089,4.359-4.124,7.872-9.384,7.872c-5.23,0-9.53-3.514-9.616-7.902l-0.64-42.072c-0.292-16.388,15.542-29.693,35.301-29.693
                    h1.306c-6.072-4.445-10.139-11.71-10.256-19.904c-0.232-13.537,10.199-24.551,23.245-24.551c13.103,0,23.882,11.014,24.114,24.551
                    c0.146,8.194-3.659,15.459-8.833,19.904c11.303,0,37.163,7.495,53.027,12.552c-0.176-2.847,0.348-6.132,1.25-9.619
                    c1.976-7.64,10.544-33.034,19.029-58.341c8.542-25.277,22.46-28.824,46.342-28.824h23.971c23.852,0,37.83,3.546,46.312,28.824
                    c8.515,25.307,17.084,50.7,19.059,58.341c1.627,6.42,2.121,12.174-0.872,15.807c9.997,0.318,18.015,8.542,18.015,18.622H388.754z
                    M354.033,273.956c-0.03-0.116-15.313-48.841-15.313-48.841h-6.391l25.887,85.332v-8.194c0-6.188,3.023-11.678,7.64-15.049
                    C360.6,286.071,356.589,281.249,354.033,273.956z" fill="#ffbb52">               
                  </path>
                </svg>